<svg width="100" height="100" viewBox="0 0 100 100" fill="none" xmlns="http://www.w3.org/2000/svg">
<g clip-path="url(#clip0_9_196)">
<path d="M100 50.3062C100 22.5187 77.6125 -0.00634766 50 -0.00634766C22.375 -9.7656e-05 -0.0124969 22.5187 -0.0124969 50.3124C-0.0124969 75.4187 18.275 96.2311 42.175 100.006V64.8499H29.4875V50.3124H42.1875V39.2187C42.1875 26.6124 49.6563 19.6499 61.075 19.6499C66.55 19.6499 72.2688 20.6312 72.2688 20.6312V33.0062H65.9625C59.7563 33.0062 57.8188 36.8874 57.8188 40.8687V50.3062H71.6813L69.4688 64.8437H57.8125V99.9999C81.7125 96.2249 100 75.4124 100 50.3062Z" fill="black"/>
</g>
<defs>
<clipPath id="clip0_9_196">
<rect width="100" height="100" fill="white"/>
</clipPath>
</defs>
</svg>
