<svg width="56" height="44" viewBox="0 0 56 44" fill="none" xmlns="http://www.w3.org/2000/svg">
<path d="M0 7.33333C0 5.38841 0.737498 3.52315 2.05025 2.14788C3.36301 0.772617 5.14348 0 7 0H49C50.8565 0 52.637 0.772617 53.9497 2.14788C55.2625 3.52315 56 5.38841 56 7.33333V36.6667C56 38.6116 55.2625 40.4768 53.9497 41.8521C52.637 43.2274 50.8565 44 49 44H7C5.14348 44 3.36301 43.2274 2.05025 41.8521C0.737498 40.4768 0 38.6116 0 36.6667V7.33333ZM18.144 23.3493C20.405 23.3493 21.8365 24.7353 21.854 26.6493C21.882 28.6183 20.3595 30.019 18.053 30.019C15.96 30.0043 14.4235 28.8273 14.315 27.247H10.5C10.605 30.5983 13.2685 33.4363 18.0355 33.4363C22.3755 33.4363 26.033 31.0163 25.9875 26.8437C25.942 23.3493 23.373 21.7837 21.4655 21.593V21.3657C23.0055 21.109 25.403 19.4333 25.3435 16.324C25.298 13.002 22.5435 10.5673 18.158 10.5857C13.573 10.604 11.0075 13.277 10.899 16.709H14.7595C14.8365 15.2753 16.1 13.9553 18.0355 13.9553C19.8975 13.9553 21.2835 15.1653 21.2835 16.9363C21.2975 18.6927 19.943 19.998 18.0355 19.998H15.8235V23.3493H18.144ZM28.441 33H36.1025C42.4375 33 45.5 28.941 45.5 21.945C45.5 15.0003 42.4865 11.0037 36.1025 11.0037H28.441V33Z" fill="#FF4D1C"/>
</svg>
