<svg width="30" height="32" viewBox="0 0 30 32" fill="none" xmlns="http://www.w3.org/2000/svg">
<path d="M15.0102 0.843265C11.5126 0.841013 8.1242 2.07957 5.43081 4.34477C2.73742 6.60997 0.908415 9.75942 0.260032 13.2485C-0.388351 16.7377 0.184655 20.3471 1.87997 23.4528C3.57529 26.5585 6.28634 28.9652 9.54436 30.2567C9.41311 29.0518 9.2931 27.1996 9.59499 25.8843C9.86875 24.6946 11.3538 18.3139 11.3538 18.3139C11.3538 18.3139 10.9057 17.4021 10.9057 16.0544C10.9057 13.9358 12.1151 12.3559 13.6208 12.3559C14.8996 12.3559 15.5184 13.3305 15.5184 14.5011C15.5184 15.807 14.699 17.76 14.2752 19.5703C13.9227 21.0855 15.0252 22.3228 16.4972 22.3228C19.1636 22.3228 21.213 19.4675 21.213 15.3482C21.213 11.7029 18.631 9.1541 14.9465 9.1541C10.6788 9.1541 8.17367 12.4034 8.17367 15.7613C8.17367 17.0709 8.67057 18.4738 9.28935 19.2371C9.34264 19.2947 9.38032 19.3653 9.39873 19.442C9.41713 19.5187 9.41562 19.599 9.39436 19.6749C9.27998 20.1546 9.02684 21.1902 8.97809 21.4015C8.91246 21.6794 8.76058 21.7384 8.47556 21.6051C6.60048 20.72 5.43042 17.9389 5.43042 15.7042C5.43042 10.9016 8.86933 6.49106 15.3421 6.49106C20.5455 6.49106 24.5901 10.2543 24.5901 15.2854C24.5901 20.5334 21.3293 24.7574 16.8066 24.7574C15.2859 24.7574 13.8571 23.956 13.3677 23.008L12.4339 26.6286C12.0945 27.9515 11.1794 29.6095 10.5682 30.6203C12.6307 31.2677 14.8066 31.4555 16.9472 31.1709C19.0878 30.8863 21.1427 30.136 22.9715 28.9713C24.8002 27.8065 26.3598 26.2548 27.5436 24.422C28.7274 22.5892 29.5076 20.5187 29.8309 18.3517C30.1541 16.1848 30.0129 13.9726 29.4167 11.8662C28.8205 9.75976 27.7834 7.80881 26.3764 6.14658C24.9694 4.48436 23.2255 3.15004 21.2639 2.23478C19.3022 1.31951 17.1691 0.844865 15.0102 0.843265Z" fill="black"/>
</svg>
