<svg width="50" height="42" viewBox="0 0 50 42" fill="none" xmlns="http://www.w3.org/2000/svg">
<g clip-path="url(#clip0_5_84)">
<path d="M49.4531 0.314999C49.7096 0.498913 49.8884 0.747597 49.9627 1.0239C50.0371 1.30021 50.003 1.5893 49.8656 1.848C45.0844 10.8517 35.0438 23.2942 27.6938 29.778C25.6312 31.5893 23.0911 32.9685 20.2781 33.8047C20.2219 34.4006 20.0906 35.217 19.7781 36.0832C19.15 37.8131 17.6938 39.9656 14.4406 40.6507C11.2903 41.2821 8.025 41.3997 4.82189 40.9972C4.22706 40.9149 3.64012 40.7964 3.06564 40.6429C2.5357 40.5062 2.04152 40.2862 1.60939 39.9945C1.32351 39.7924 1.10403 39.5321 0.971888 39.2385C0.805419 38.8628 0.809871 38.4487 0.984388 38.0756C1.28126 37.4325 1.97189 37.0781 2.42501 36.8891C3.65626 36.372 4.37814 35.7 5.13439 34.7209C5.43126 34.3429 5.70939 33.9412 6.03126 33.4819L6.39689 32.9621C6.86876 32.2927 7.41564 31.5446 8.10314 30.7361C9.75314 28.7962 11.8563 28.308 13.5594 28.3841C13.9552 28.4051 14.3177 28.4471 14.6469 28.5101C14.8406 28.0586 15.0906 27.5126 15.3906 26.9141C16.2063 25.2892 17.4469 23.1892 19.1 21.483C25.9 14.4742 38.4125 5.19225 47.5906 0.209999C47.8732 0.056803 48.2071 -0.0157258 48.5426 0.0031911C48.8782 0.022108 49.1975 0.131461 49.4531 0.314999ZM14.7031 31.269C14.2891 31.1159 13.8455 31.0269 13.3938 31.0065C12.625 30.9724 11.6031 31.1378 10.6469 32.2639C10.0313 32.9857 9.53751 33.6604 9.08439 34.3035L8.75626 34.7681C8.42501 35.2432 8.09064 35.7184 7.75626 36.1541C7.12289 37.0152 6.31977 37.7794 5.38126 38.4142C7.53751 38.7082 10.8063 38.7056 13.6844 38.0992C15.4313 37.7344 16.3188 36.6056 16.7875 35.3167C17.0177 34.6772 17.15 34.0156 17.1813 33.348L14.7031 31.269ZM19.2031 31.3372C19.5781 31.2322 20.0688 31.0747 20.6344 30.8569C22.4334 30.1536 24.0602 29.1743 25.4313 27.9694C31.3688 22.7299 39.2188 13.3481 44.3438 5.313C36.25 10.3714 26.95 17.5455 21.525 23.142C20.1438 24.5674 19.0406 26.4049 18.2688 27.9352C17.8906 28.6912 17.6 29.3528 17.4094 29.8253L19.2031 31.3372Z" fill="#FF4D1C"/>
</g>
<defs>
<clipPath id="clip0_5_84">
<rect width="50" height="42" fill="white"/>
</clipPath>
</defs>
</svg>
