<svg width="60" height="53" viewBox="0 0 60 53" fill="none" xmlns="http://www.w3.org/2000/svg">
<path d="M39.9108 2.44968C39.988 2.21204 40.015 1.96234 39.9903 1.71483C39.9655 1.46732 39.8895 1.22685 39.7666 1.00714C39.6437 0.787434 39.4762 0.592796 39.2738 0.434341C39.0714 0.275886 38.838 0.156716 38.587 0.0836367C38.3359 0.010557 38.0721 -0.0150016 37.8106 0.00841988C37.5491 0.0318414 37.2951 0.103784 37.0629 0.220141C36.8308 0.336498 36.6252 0.49499 36.4578 0.686568C36.2904 0.878146 36.1645 1.09906 36.0873 1.33669L20.0892 50.5503C19.9333 51.0302 19.9851 51.5491 20.2334 51.9929C20.4817 52.4366 20.906 52.7688 21.413 52.9164C21.9201 53.064 22.4683 53.0149 22.937 52.7799C23.4058 52.5449 23.7568 52.1432 23.9127 51.6633L39.9108 2.44968ZM17.4175 11.9101C17.6037 12.0859 17.7515 12.2948 17.8523 12.5247C17.9531 12.7547 18.005 13.0012 18.005 13.2502C18.005 13.4991 17.9531 13.7457 17.8523 13.9756C17.7515 14.2056 17.6037 14.4145 17.4175 14.5903L4.831 26.5L17.4175 38.4097C17.793 38.7651 18.004 39.2472 18.004 39.7498C18.004 40.2525 17.793 40.7345 17.4175 41.09C17.042 41.4454 16.5327 41.6451 16.0017 41.6451C15.4706 41.6451 14.9613 41.4454 14.5858 41.09L0.587505 27.8401C0.401274 27.6643 0.253521 27.4554 0.152707 27.2255C0.051893 26.9955 0 26.749 0 26.5C0 26.251 0.051893 26.0045 0.152707 25.7745C0.253521 25.5446 0.401274 25.3357 0.587505 25.1599L14.5858 11.9101C14.7716 11.7338 14.9923 11.5939 15.2352 11.4985C15.4782 11.4031 15.7386 11.354 16.0017 11.354C16.2647 11.354 16.5252 11.4031 16.7681 11.4985C17.0111 11.5939 17.2317 11.7338 17.4175 11.9101ZM42.5825 11.9101C42.3963 12.0859 42.2485 12.2948 42.1477 12.5247C42.0469 12.7547 41.995 13.0012 41.995 13.2502C41.995 13.4991 42.0469 13.7457 42.1477 13.9756C42.2485 14.2056 42.3963 14.4145 42.5825 14.5903L55.169 26.5L42.5825 38.4097C42.3966 38.5857 42.2491 38.7946 42.1485 39.0246C42.0478 39.2545 41.996 39.5009 41.996 39.7498C41.996 39.9987 42.0478 40.2452 42.1485 40.4751C42.2491 40.705 42.3966 40.914 42.5825 41.09C42.7684 41.2659 42.9892 41.4055 43.2321 41.5008C43.475 41.596 43.7354 41.6451 43.9983 41.6451C44.2613 41.6451 44.5216 41.596 44.7646 41.5008C45.0075 41.4055 45.2282 41.2659 45.4142 41.09L59.4125 27.8401C59.5987 27.6643 59.7465 27.4554 59.8473 27.2255C59.9481 26.9955 60 26.749 60 26.5C60 26.251 59.9481 26.0045 59.8473 25.7745C59.7465 25.5446 59.5987 25.3357 59.4125 25.1599L45.4142 11.9101C45.2284 11.7338 45.0077 11.5939 44.7648 11.4985C44.5218 11.4031 44.2614 11.354 43.9983 11.354C43.7353 11.354 43.4748 11.4031 43.2319 11.4985C42.9889 11.5939 42.7683 11.7338 42.5825 11.9101Z" fill="#FF4D1C"/>
</svg>
