<svg width="30" height="32" viewBox="0 0 30 32" fill="none" xmlns="http://www.w3.org/2000/svg">
<path d="M0 3.02471C0 1.81978 0.98625 0.843262 2.20312 0.843262H27.7969C29.0137 0.843262 30 1.81978 30 3.02471V29.1184C30 30.3233 29.0137 31.2998 27.7969 31.2998H2.20312C0.98625 31.2998 0 30.3233 0 29.1184V3.02471ZM9.26812 26.3392V12.5862H4.76625V26.3392H9.26812ZM7.01813 10.7074C8.5875 10.7074 9.56437 9.65283 9.56437 8.33177C9.53625 6.98217 8.58938 5.95616 7.04813 5.95616C5.50688 5.95616 4.5 6.98407 4.5 8.33177C4.5 9.65283 5.47688 10.7074 6.98812 10.7074H7.01813ZM16.2206 26.3392V18.6585C16.2206 18.2473 16.2506 17.8361 16.3706 17.543C16.695 16.7226 17.4356 15.8717 18.6806 15.8717C20.31 15.8717 20.9606 17.1318 20.9606 18.9821V26.3392H25.4625V18.451C25.4625 14.2251 23.2425 12.2607 20.28 12.2607C17.8912 12.2607 16.8206 13.5931 16.2206 14.5316V14.5792H16.1906L16.2206 14.5316V12.5862H11.7206C11.7769 13.8768 11.7206 26.3392 11.7206 26.3392H16.2206Z" fill="black"/>
</svg>
