<svg width="30" height="31" viewBox="0 0 30 31" fill="none" xmlns="http://www.w3.org/2000/svg">
<path d="M25.3969 3.33185C23.4519 2.15995 21.3991 1.32402 19.2901 0.84497C19.271 0.840749 19.2514 0.844395 19.2339 0.855407C19.2165 0.866419 19.202 0.884256 19.1926 0.906466C18.9282 1.52142 18.6357 2.32578 18.4314 2.9555C16.1581 2.50329 13.8459 2.50329 11.5727 2.9555C11.3457 2.25343 11.0877 1.56926 10.8002 0.906466C10.7908 0.884256 10.7764 0.866419 10.7589 0.855407C10.7414 0.844395 10.7218 0.840749 10.7027 0.84497C8.59335 1.32218 6.54025 2.15851 4.59589 3.33185C4.57917 3.34 4.56521 3.35569 4.55652 3.37613C0.66781 10.9991 -0.399054 18.4351 0.124065 25.7777C0.127815 25.8138 0.14094 25.8441 0.16344 25.8687C2.42836 28.0683 4.96107 29.7484 7.65399 30.8376C7.673 30.8454 7.69343 30.8451 7.71232 30.8367C7.7312 30.8283 7.74755 30.8123 7.75899 30.7908C8.33773 29.7577 8.84897 28.668 9.29272 27.5217C9.30194 27.4981 9.3051 27.4712 9.30172 27.4451C9.29834 27.4189 9.28861 27.3949 9.27397 27.3766L9.24022 27.3495C8.43278 26.9411 7.65048 26.4518 6.90024 25.8859C6.8793 25.8704 6.86373 25.8448 6.85675 25.8146C6.84976 25.7844 6.85191 25.7518 6.86274 25.7236L6.89087 25.6769C7.04962 25.5211 7.20462 25.3612 7.35586 25.1972C7.36912 25.1832 7.38501 25.1742 7.40186 25.1712C7.4187 25.1682 7.43586 25.1712 7.45149 25.18C12.3621 28.1219 17.6776 28.1219 22.5282 25.18C22.5443 25.1702 22.5622 25.1666 22.5798 25.1697C22.5974 25.1727 22.614 25.1823 22.6276 25.1972C22.7788 25.3612 22.9338 25.5211 23.0926 25.6769C23.1058 25.6887 23.1164 25.7048 23.1236 25.7236C23.1307 25.7423 23.134 25.7632 23.1333 25.7841C23.1325 25.8051 23.1277 25.8254 23.1193 25.8433C23.1108 25.8611 23.0991 25.8758 23.0851 25.8859C22.3381 26.4608 21.5545 26.9496 20.7432 27.3471C20.7303 27.3532 20.7186 27.363 20.7088 27.3758C20.6991 27.3885 20.6917 27.4039 20.687 27.4209C20.6824 27.4372 20.6806 27.4547 20.6815 27.4721C20.6825 27.4895 20.6863 27.5064 20.6926 27.5217C21.1426 28.6655 21.6582 29.7577 22.2245 30.7908C22.2359 30.8123 22.2522 30.8283 22.2711 30.8367C22.29 30.8451 22.3104 30.8454 22.3295 30.8376C25.0277 29.7544 27.5648 28.0739 29.8313 25.8687C29.8425 25.8583 29.8519 25.8447 29.8587 25.829C29.8655 25.8133 29.8696 25.7957 29.8706 25.7777C30.4969 17.2889 28.8225 9.91433 25.4344 3.37859C25.4315 3.36743 25.4265 3.35736 25.42 3.34923C25.4135 3.34109 25.4056 3.33514 25.3969 3.33185ZM10.0258 21.3058C8.54648 21.3058 7.32961 19.5248 7.32961 17.3405C7.32961 15.1562 8.52398 13.3728 10.0258 13.3728C11.5389 13.3728 12.7446 15.1685 12.7221 17.3405C12.7221 19.5248 11.5277 21.3058 10.0258 21.3058ZM19.9932 21.3058C18.5157 21.3058 17.297 19.5248 17.297 17.3405C17.297 15.1562 18.4914 13.3728 19.9932 13.3728C21.5063 13.3728 22.7138 15.1685 22.6895 17.3405C22.6895 19.5248 21.5063 21.3058 19.9932 21.3058Z" fill="black"/>
</svg>
