<svg width="30" height="32" viewBox="0 0 30 32" fill="none" xmlns="http://www.w3.org/2000/svg">
<path d="M15 0.843262C10.9294 0.843262 10.4175 0.862297 8.81813 0.934631C7.21875 1.01077 6.12937 1.26585 5.175 1.64275C4.17346 2.02407 3.26651 2.62383 2.51813 3.39971C1.75387 4.15949 1.16311 5.08024 0.7875 6.09702C0.41625 7.06402 0.163125 8.17188 0.09 9.78988C0.01875 11.4174 0 11.9352 0 16.0735C0 20.2079 0.01875 20.7257 0.09 22.3494C0.165 23.9712 0.41625 25.0772 0.7875 26.0461C1.17187 27.0473 1.68375 27.8963 2.51813 28.7434C3.35063 29.5905 4.18688 30.112 5.17313 30.5004C6.12938 30.8773 7.21688 31.1342 8.81438 31.2085C10.4156 31.2808 10.9256 31.2998 15 31.2998C19.0744 31.2998 19.5825 31.2808 21.1838 31.2085C22.7794 31.1323 23.8725 30.8773 24.8269 30.5004C25.8277 30.1188 26.734 29.519 27.4819 28.7434C28.3162 27.8963 28.8281 27.0473 29.2125 26.0461C29.5819 25.0772 29.835 23.9712 29.91 22.3494C29.9812 20.7257 30 20.2079 30 16.0716C30 11.9352 29.9812 11.4174 29.91 9.79179C29.835 8.17188 29.5819 7.06402 29.2125 6.09702C28.8369 5.08024 28.2461 4.15949 27.4819 3.39971C26.7335 2.62383 25.8265 2.02407 24.825 1.64275C23.8687 1.26585 22.7775 1.00887 21.1819 0.934631C19.5806 0.862297 19.0725 0.843262 14.9963 0.843262H15ZM13.6556 3.58816H15.0019C19.0069 3.58816 19.4812 3.60149 21.0619 3.67572C22.5244 3.74235 23.3194 3.99171 23.8481 4.1992C24.5475 4.47521 25.0481 4.80642 25.5731 5.33941C26.0981 5.8724 26.4225 6.37875 26.6944 7.09067C26.9006 7.62556 27.1444 8.43266 27.21 9.91742C27.2831 11.5221 27.2981 12.0037 27.2981 16.0677C27.2981 20.1318 27.2831 20.6153 27.21 22.22C27.1444 23.7047 26.8988 24.5099 26.6944 25.0467C26.4522 25.7071 26.0686 26.3046 25.5712 26.7961C25.0462 27.3291 24.5475 27.6584 23.8463 27.9344C23.3213 28.1438 22.5262 28.3912 21.0619 28.4598C19.4812 28.5321 19.0069 28.5492 15.0019 28.5492C10.9969 28.5492 10.5206 28.5321 8.94 28.4598C7.4775 28.3912 6.68437 28.1438 6.15562 27.9344C5.50469 27.6893 4.9155 27.3005 4.43062 26.7961C3.93239 26.3042 3.54812 25.706 3.30563 25.0448C3.10125 24.5099 2.85563 23.7028 2.79 22.2181C2.71875 20.6134 2.70375 20.1318 2.70375 16.0639C2.70375 11.9961 2.71875 11.5183 2.79 9.91361C2.8575 8.42885 3.10125 7.62175 3.3075 7.08496C3.57938 6.37494 3.90562 5.86669 4.43062 5.3337C4.95562 4.80071 5.45437 4.4714 6.15562 4.19539C6.68437 3.986 7.4775 3.73854 8.94 3.67001C10.3238 3.60529 10.86 3.58626 13.6556 3.58435V3.58816ZM23.0081 6.11606C22.7717 6.11606 22.5377 6.16332 22.3193 6.25516C22.1009 6.34699 21.9025 6.4816 21.7353 6.65129C21.5682 6.82098 21.4356 7.02243 21.3451 7.24414C21.2547 7.46585 21.2081 7.70347 21.2081 7.94345C21.2081 8.18343 21.2547 8.42106 21.3451 8.64277C21.4356 8.86447 21.5682 9.06593 21.7353 9.23562C21.9025 9.4053 22.1009 9.53991 22.3193 9.63174C22.5377 9.72358 22.7717 9.77085 23.0081 9.77085C23.4855 9.77085 23.9434 9.57832 24.2809 9.23562C24.6185 8.89291 24.8081 8.42811 24.8081 7.94345C24.8081 7.4588 24.6185 6.99399 24.2809 6.65129C23.9434 6.30859 23.4855 6.11606 23.0081 6.11606ZM15.0019 8.25182C13.9801 8.23564 12.9654 8.42597 12.0168 8.81173C11.0682 9.19749 10.2047 9.77098 9.47653 10.4988C8.74835 11.2266 8.17006 12.0942 7.77533 13.0511C7.3806 14.008 7.17731 15.0351 7.17731 16.0725C7.17731 17.1099 7.3806 18.137 7.77533 19.0939C8.17006 20.0508 8.74835 20.9184 9.47653 21.6462C10.2047 22.374 11.0682 22.9475 12.0168 23.3333C12.9654 23.719 13.9801 23.9094 15.0019 23.8932C17.0241 23.8612 18.9529 23.0231 20.3718 21.5599C21.7908 20.0967 22.5861 18.1258 22.5861 16.0725C22.5861 14.0192 21.7908 12.0483 20.3718 10.5851C18.9529 9.12191 17.0241 8.28386 15.0019 8.25182ZM15.0019 10.9948C15.6586 10.9948 16.3088 11.1261 16.9155 11.3813C17.5222 11.6364 18.0735 12.0103 18.5379 12.4818C19.0022 12.9532 19.3705 13.5128 19.6219 14.1288C19.8732 14.7447 20.0025 15.4049 20.0025 16.0716C20.0025 16.7382 19.8732 17.3984 19.6219 18.0143C19.3705 18.6303 19.0022 19.1899 18.5379 19.6613C18.0735 20.1328 17.5222 20.5067 16.9155 20.7618C16.3088 21.017 15.6586 21.1483 15.0019 21.1483C13.6756 21.1483 12.4037 20.6134 11.4659 19.6613C10.5281 18.7093 10.0013 17.418 10.0013 16.0716C10.0013 14.7251 10.5281 13.4338 11.4659 12.4818C12.4037 11.5297 13.6756 10.9948 15.0019 10.9948Z" fill="black"/>
</svg>
