<svg width="50" height="50" viewBox="0 0 50 50" fill="none" xmlns="http://www.w3.org/2000/svg">
<g clip-path="url(#clip0_9_212)">
<path d="M42.3281 9.0844C39.0863 7.5956 35.665 6.53361 32.15 5.92502C32.1181 5.91966 32.0854 5.92429 32.0563 5.93828C32.0272 5.95227 32.0032 5.97493 31.9875 6.00315C31.5469 6.7844 31.0594 7.80627 30.7187 8.60627C26.93 8.03178 23.0762 8.03178 19.2875 8.60627C18.9091 7.71435 18.4792 6.84517 18 6.00315C17.9843 5.97493 17.9602 5.95227 17.9311 5.93828C17.902 5.92429 17.8693 5.91966 17.8375 5.92502C14.3219 6.53127 10.9 7.59377 7.65935 9.0844C7.63149 9.09475 7.60822 9.11469 7.59373 9.14065C1.11248 18.825 -0.665647 28.2719 0.206228 37.6C0.212478 37.6459 0.234353 37.6844 0.271853 37.7156C4.04676 40.5101 8.268 42.6445 12.7562 44.0281C12.7879 44.0381 12.822 44.0378 12.8534 44.0271C12.8849 44.0164 12.9122 43.996 12.9312 43.9688C13.8958 42.6563 14.7479 41.2719 15.4875 39.8156C15.5028 39.7857 15.5081 39.7515 15.5025 39.7183C15.4968 39.685 15.4806 39.6545 15.4562 39.6313L15.4 39.5969C14.0542 39.078 12.7504 38.4564 11.5 37.7375C11.4651 37.7177 11.4391 37.6853 11.4275 37.6469C11.4158 37.6085 11.4194 37.5671 11.4375 37.5313L11.4844 37.4719C11.7489 37.274 12.0073 37.0709 12.2594 36.8625C12.2814 36.8448 12.3079 36.8333 12.336 36.8295C12.3641 36.8256 12.3927 36.8295 12.4187 36.8406C20.6031 40.5781 29.4625 40.5781 37.5469 36.8406C37.5737 36.8282 37.6035 36.8237 37.6328 36.8276C37.6622 36.8315 37.6898 36.8436 37.7125 36.8625C37.9646 37.0709 38.2229 37.274 38.4875 37.4719C38.5095 37.4869 38.5273 37.5074 38.5391 37.5312C38.551 37.5551 38.5566 37.5816 38.5553 37.6082C38.5541 37.6348 38.546 37.6607 38.532 37.6833C38.5179 37.7059 38.4983 37.7246 38.475 37.7375C37.23 38.4678 35.924 39.0889 34.5719 39.5938C34.5503 39.6016 34.5307 39.614 34.5145 39.6302C34.4983 39.6464 34.4859 39.666 34.4781 39.6875C34.4705 39.7083 34.4674 39.7305 34.469 39.7526C34.4706 39.7747 34.4769 39.7962 34.4875 39.8156C35.2375 41.2688 36.0969 42.6563 37.0406 43.9688C37.0597 43.996 37.0869 44.0164 37.1184 44.0271C37.1499 44.0378 37.1839 44.0381 37.2156 44.0281C41.7127 42.6521 45.9413 40.5172 49.7187 37.7156C49.7375 37.7024 49.7531 37.6851 49.7645 37.6652C49.7758 37.6452 49.7826 37.6229 49.7844 37.6C50.8281 26.8156 48.0375 17.4469 42.3906 9.14377C42.3857 9.1296 42.3775 9.11681 42.3666 9.10647C42.3557 9.09614 42.3425 9.08857 42.3281 9.0844ZM16.7094 31.9188C14.2437 31.9188 12.2156 29.6563 12.2156 26.8813C12.2156 24.1063 14.2062 21.8406 16.7094 21.8406C19.2312 21.8406 21.2406 24.1219 21.2031 26.8813C21.2031 29.6563 19.2125 31.9188 16.7094 31.9188ZM33.3219 31.9188C30.8594 31.9188 28.8281 29.6563 28.8281 26.8813C28.8281 24.1063 30.8187 21.8406 33.3219 21.8406C35.8437 21.8406 37.8562 24.1219 37.8156 26.8813C37.8156 29.6563 35.8437 31.9188 33.3219 31.9188Z" fill="black"/>
</g>
<defs>
<clipPath id="clip0_9_212">
<rect width="50" height="50" fill="white"/>
</clipPath>
</defs>
</svg>
