<svg width="42" height="44" viewBox="0 0 42 44" fill="none" xmlns="http://www.w3.org/2000/svg">
<path d="M40.3676 19.7309C38.4329 18.9812 35.669 19.986 33.7133 22.4153C32.4287 24.0103 32.0504 26.2812 30.3637 26.518C29.7193 26.6088 29.3691 26.2653 29.187 25.7708C28.995 24.9366 29.0371 23.6471 29.3929 21.8436L33.2314 6.73439C33.5368 5.57989 32.8209 4.46219 31.0978 4.0978C29.3747 3.73342 28.0789 4.47323 27.7721 5.62774L24.3454 19.3272C23.6548 22.3527 22.3744 21.8031 22.684 18.3764L23.666 2.31268C23.7459 1.07106 22.656 0.0564241 21.0449 0.00244086C19.4339 -0.0515424 18.2725 0.795013 18.1899 2.0354L17.2541 18.4868C17.0537 21.808 15.6963 20.5566 15.4021 18.1506L13.2251 4.8413C13.0023 3.58619 11.6588 2.71878 10.0478 2.94453C8.43676 3.1715 7.46313 4.33828 7.68587 5.59339L9.78023 17.7568C10.611 22.4006 9.52526 23.6864 7.73771 18.6438L5.50466 11.2518C5.14043 10.0654 3.80537 9.32927 2.12848 9.74151C0.451599 10.1537 -0.271268 11.3352 0.0915666 12.5216L2.27418 19.4695C3.18617 24.4716 3.18617 26.4456 3.18617 29.8895C3.18617 33.3334 4.99474 44 18.8287 44C32.6626 44 35.5079 31.693 35.6395 30.914C35.6395 30.914 35.8119 29.0982 37.259 27.3989C38.64 25.7637 40.1006 24.1812 41.6368 22.6558C42.0809 22.2153 42.5124 20.5615 40.3676 19.7309Z" fill="#FFDC5D"/>
</svg>
